<?xml version="1.0" ?><svg viewBox="0 0 24 24" xmlns="http://www.w3.org/2000/svg"><g><path d="M0 0h24v24H0z" fill="none"/><path d="m 11.995059,11.780131 -1.030406,1.112391 c 1.594604,2.900833 -1.9465931,5.866101 -4.1553434,3.49506 -2.2087503,-2.37104 0.517891,-6.210713 3.2139034,-4.505673 L 11.055611,10.766651 8.9815211,8.5268158 c -0.3887742,-0.4198343 -0.3887742,-1.1003859 0,-1.5202203 L 9.2165492,6.752867 11.995059,9.752454 14.776225,6.75 15.010589,7.0037284 c 0.388332,0.4197523 0.388332,1.0997519 0,1.5195034 l -2.076746,2.2434192 1.036382,1.118125 c 2.691533,-1.713272 5.428228,2.118062 3.2257,4.495839 -2.202531,2.377777 -5.751484,-0.576667 -4.164485,-3.482359 z m -3.3149581,4.008767 c 1.7704561,0 1.7704561,-2.866989 0,-2.866989 -1.7704555,0 -1.7704555,2.866989 0,2.866989 z m 6.6392111,0 c 1.770456,0 1.770456,-2.866989 0,-2.866989 -1.770456,0 -1.770456,2.866989 0,2.866989 z" fill="context-fill" fill-opacity="context-fill-opacity"/><path d="M 22.499235,15.9375 H 19.87433 V 19.875 H 15.936974 V 22.5 h 3.937356 c 2.580654,-0.08399 2.635136,-0.06837 2.624905,-2.625 z M 2.8124522,22.5 H 6.7498087 V 19.875 H 4.1249043 V 17.25 H 1.5 v 3.9375 C 1.5,21.912374 2.087605,22.5 2.8124522,22.5 Z M 22.499235,2.8125 C 22.499235,2.0876263 21.91163,1.5 21.186783,1.5 h -3.937357 v 2.625 h 2.624904 v 2.6250003 h 2.624905 z M 4.1249043,4.125 H 6.7498087 V 1.5 H 2.8124522 C 2.087605,1.5 1.5,2.0876263 1.5,2.8125 V 6.7500003 H 4.1249043 Z M 1.5,9.3750003 H 4.1249043 V 14.625 H 1.5 Z m 18.37433,0 h 2.624905 V 13.3125 H 19.87433 Z M 9.374713,1.5 h 5.249809 V 4.125 H 9.374713 Z m 0,18.375 H 13.31207 V 22.5 H 9.374713 Z" fill="context-fill" fill-opacity="context-fill-opacity"/></g></svg>